<?xml version="1.0" encoding="iso-8859-1"?>
<!-- Generator: Adobe Illustrator 26.1.0, SVG Export Plug-In . SVG Version: 6.00 Build 0)  -->
<svg version="1.1" id="Logos" xmlns="http://www.w3.org/2000/svg" xmlns:xlink="http://www.w3.org/1999/xlink" x="0px" y="0px"
	 viewBox="0 0 1456.297 282.568" style="enable-background:new 0 0 1456.297 282.568;" xml:space="preserve">
<path id="FAU_x5F_Logo_00000087384039772143529630000018440013674716552331_" style="fill:#04316A;" d="M48.718,66.643l9.744-9.744
	v176.95h-9.744V66.643z M77.95,58.462h116.925v-9.744H68.206v116.924h107.622V155.9H77.95V58.462z M190.499,136.412H97.437V97.438
	h79.587l9.744-9.744H97.437V77.95h97.438v-9.744H87.693v77.95h93.19L190.499,136.412z M68.206,233.849h9.744V185.13h9.744v40.538
	l9.744-9.743V185.13h78.391v-9.743H68.206V233.849z M542.598,48.718v112.054c0,26.074-11.634,48.475-38.78,65.656l-0.22-0.287
	c17.837-14.146,29.256-32.316,29.256-55.789V48.719h-9.744V170.19c0,34.979-28.356,61.223-63.335,61.223
	s-63.334-26.245-63.334-61.223V56.899l-9.744,9.744v103.709c0,40.36,32.718,70.642,73.078,70.642c0.934,0,9.744,0,9.744,0
	c39.743,0,82.822-29.35,82.822-80.08c0-0.048,0-112.196,0-112.196H542.598z M459.776,221.669c29.581,0,53.563-21.907,53.59-51.479h0
	V56.899l-9.744,9.744v94.128c0,18.835-15.269,31.667-34.103,31.667c-18.834,0-34.103-12.833-34.103-31.667V48.719h-9.744v112.053
	c0,24.216,19.631,41.411,43.847,41.411c9.902,0,21.921-4.892,30.086-13.503l0.219,0.287c-7.655,14.195-21.804,22.96-40.048,22.96
	c-24.067,0-43.603-17.424-43.841-41.411h-0.006V48.719h-9.744v121.796h0.005C406.393,199.922,430.305,221.669,459.776,221.669z
	 M243.257,175.387l-24.64,58.462l9.745-0.001l-0.001,0.001h0.001l12.319-29.231h82.554l12.308,29.231h9.744l-16.411-38.975h-84.089
	l4.107-9.744h85.623l20.514,48.719h9.744l-24.616-58.462H243.257z M257.594,48.718l-71.61,169.858l6.202,8.42l75.152-178.278
	H257.594z M296.569,48.719l75.058,178.278l6.186-8.42L306.312,48.719H296.569z M237.6,165.643l-28.818,68.206h-9.744l73.171-173.562
	l40.258,95.612h9.744L277.082,48.719h9.744l49.232,116.924H237.6z M281.978,106.63l-20.764,49.27h41.509L281.978,106.63z
	 M241.702,155.9h9.768l25.638-60.836l-4.879-11.587L241.702,155.9z"/>
<g>
	<g>
		<path style="fill:#04316A;" d="M625.367,55.059h-17.433v9.624h13.033v6.27h-13.033V87.45h-6.874V48.735h24.307V55.059z"/>
		<path style="fill:#04316A;" d="M646.042,59.349l-1.045,6.709c-0.99-0.55-2.2-0.88-3.629-0.88c-4.509,0-5.719,3.63-5.719,7.919
			V87.45h-6.544V59.459h6.434v3.52h0.11c1.485-2.639,4.125-4.234,7.314-4.234C643.898,58.744,645.052,58.909,646.042,59.349z"/>
		<path style="fill:#04316A;" d="M658.996,50.99c0,2.31-1.87,3.959-4.18,3.959c-2.254,0-4.124-1.65-4.124-3.959
			c0-2.255,1.87-3.959,4.124-3.959C657.126,47.031,658.996,48.735,658.996,50.99z M658.116,87.45h-6.544V59.459h6.544V87.45z"/>
		<path style="fill:#04316A;" d="M678.866,88.11c-8.304,0-13.858-5.884-13.858-14.737c0-8.689,5.334-14.628,13.144-14.628
			c7.534,0,12.428,5.609,12.428,14.243c0,0.935-0.055,1.924-0.11,2.695h-18.808c0.715,4.344,3.299,6.819,7.259,6.819
			c2.585,0,4.674-0.99,6.874-3.3l4.069,4.29C686.675,86.626,683.101,88.11,678.866,88.11z M671.552,70.897h12.703
			c-0.275-4.289-2.53-6.764-6.214-6.764C674.412,64.133,672.102,66.553,671.552,70.897z"/>
		<path style="fill:#04316A;" d="M696.27,73.372c0-9.02,4.564-14.628,11.383-14.628c3.52,0,6.269,1.485,8.139,3.794h0.11V48.186
			l6.544-1.65V87.45h-6.379v-3.299h-0.11c-2.035,2.475-4.95,3.959-8.414,3.959C700.889,88.11,696.27,82.446,696.27,73.372z
			 M702.759,73.372c0,5.719,2.364,8.963,6.489,8.963c2.53,0,4.62-1.21,6.654-3.685V68.423c-1.87-2.53-4.015-3.74-6.654-3.74
			C705.014,64.683,702.759,67.763,702.759,73.372z"/>
		<path style="fill:#04316A;" d="M747.907,59.349l-1.045,6.709c-0.99-0.55-2.2-0.88-3.629-0.88c-4.509,0-5.719,3.63-5.719,7.919
			V87.45h-6.544V59.459h6.434v3.52h0.11c1.485-2.639,4.125-4.234,7.314-4.234C745.762,58.744,746.917,58.909,747.907,59.349z"/>
		<path style="fill:#04316A;" d="M760.86,50.99c0,2.31-1.87,3.959-4.18,3.959c-2.254,0-4.124-1.65-4.124-3.959
			c0-2.255,1.87-3.959,4.124-3.959C758.99,47.031,760.86,48.735,760.86,50.99z M759.98,87.45h-6.544V59.459h6.544V87.45z"/>
		<path style="fill:#04316A;" d="M790.426,83.601c-2.805,3.079-5.995,4.509-10.009,4.509c-8.029,0-13.418-5.774-13.418-14.573
			c0-8.799,5.444-14.793,13.528-14.793c4.18,0,7.644,1.65,10.063,4.784l-4.509,4.29c-1.65-2.145-3.41-3.08-5.609-3.08
			c-4.125,0-6.929,3.41-6.929,8.689c0,5.224,2.805,8.744,6.874,8.744c2.2,0,3.96-0.99,5.774-3.08L790.426,83.601z"/>
		<path style="fill:#04316A;" d="M820.29,87.45h-6.544V71.448c0-4.125-1.265-6.819-5.169-6.819c-4.509,0-5.829,3.574-5.829,6.764
			V87.45h-6.544V48.186l6.544-1.65v16.278h0.11c1.595-2.474,4.509-4.069,8.194-4.069c6.489,0,9.239,4.839,9.239,11.329V87.45z"/>
		<path style="fill:#04316A;" d="M841.548,73.372H827.8v-6.215h13.748V73.372z"/>
		<path style="fill:#04316A;" d="M859.324,48.735h7.259l14.408,38.715h-7.533l-2.805-8.249h-15.618l-2.805,8.249h-7.314
			L859.324,48.735z M857.179,73.042h11.328l-5.608-16.443h-0.11L857.179,73.042z"/>
		<path style="fill:#04316A;" d="M893.277,87.45h-6.544V48.076l6.544-1.484V87.45z"/>
		<path style="fill:#04316A;" d="M914.231,88.11c-8.304,0-13.857-5.884-13.857-14.737c0-8.689,5.334-14.628,13.143-14.628
			c7.534,0,12.429,5.609,12.429,14.243c0,0.935-0.055,1.924-0.11,2.695h-18.807c0.715,4.344,3.299,6.819,7.259,6.819
			c2.584,0,4.674-0.99,6.874-3.3l4.069,4.29C922.041,86.626,918.465,88.11,914.231,88.11z M906.917,70.897h12.703
			c-0.274-4.289-2.529-6.764-6.214-6.764C909.777,64.133,907.467,66.553,906.917,70.897z"/>
		<path style="fill:#04316A;" d="M956.2,87.45h-7.479l-5.994-9.679h-0.109l-5.83,9.679h-7.368l9.568-14.518l-8.854-13.473h7.369
			l5.279,8.579h0.109l5.225-8.579h7.259l-8.799,13.363L956.2,87.45z"/>
		<path style="fill:#04316A;" d="M971.667,70.073c1.815,0,3.465,0.11,5.279,0.604v-0.99c0-3.575-2.09-5.444-6.159-5.444
			c-2.255,0-4.784,0.55-7.094,1.595l-1.43-5.499c2.584-0.99,5.994-1.595,9.184-1.595c7.864,0,11.934,3.685,11.934,10.833V87.45
			h-6.215v-2.969h-0.109c-2.42,2.474-4.949,3.629-8.194,3.629c-5.609,0-9.238-3.464-9.238-8.909
			C959.624,73.262,963.858,70.073,971.667,70.073z M970.567,83.216c2.364,0,4.565-1.155,6.379-3.354v-4.894
			c-1.54-0.385-3.135-0.55-4.564-0.55c-4.124,0-6.489,1.65-6.489,4.619C965.892,81.621,967.708,83.216,970.567,83.216z"/>
		<path style="fill:#04316A;" d="M1015.764,87.45h-6.545V71.448c0-4.07-1.209-6.819-5.169-6.819c-4.564,0-5.829,3.739-5.829,6.764
			V87.45h-6.544V59.459h6.489v3.354h0.109c1.65-2.474,4.62-4.069,8.249-4.069c6.379,0,9.239,4.674,9.239,11.329V87.45z"/>
		<path style="fill:#04316A;" d="M1022.686,73.372c0-9.02,4.564-14.628,11.384-14.628c3.519,0,6.269,1.485,8.139,3.794h0.11V48.186
			l6.544-1.65V87.45h-6.379v-3.299h-0.11c-2.034,2.475-4.949,3.959-8.414,3.959C1027.306,88.11,1022.686,82.446,1022.686,73.372z
			 M1029.175,73.372c0,5.719,2.365,8.963,6.489,8.963c2.529,0,4.619-1.21,6.654-3.685V68.423c-1.87-2.53-4.015-3.74-6.654-3.74
			C1031.43,64.683,1029.175,67.763,1029.175,73.372z"/>
		<path style="fill:#04316A;" d="M1069.824,88.11c-8.304,0-13.858-5.884-13.858-14.737c0-8.689,5.334-14.628,13.143-14.628
			c7.534,0,12.429,5.609,12.429,14.243c0,0.935-0.055,1.924-0.11,2.695h-18.807c0.716,4.344,3.3,6.819,7.26,6.819
			c2.584,0,4.674-0.99,6.874-3.3l4.069,4.29C1077.633,86.626,1074.059,88.11,1069.824,88.11z M1062.51,70.897h12.703
			c-0.275-4.289-2.529-6.764-6.214-6.764C1065.37,64.133,1063.06,66.553,1062.51,70.897z"/>
		<path style="fill:#04316A;" d="M1105.623,59.349l-1.045,6.709c-0.989-0.55-2.199-0.88-3.63-0.88c-4.509,0-5.719,3.63-5.719,7.919
			V87.45h-6.544V59.459h6.434v3.52h0.11c1.484-2.639,4.124-4.234,7.314-4.234C1103.478,58.744,1104.632,58.909,1105.623,59.349z"/>
		<path style="fill:#04316A;" d="M1123.442,73.372h-13.748v-6.215h13.748V73.372z"/>
		<path style="fill:#04316A;" d="M1162.038,72.107c0,9.349-4.784,16.002-15.178,16.002c-10.339,0-15.068-6.599-15.068-16.002V48.735
			h7.039v22.987c0,5.829,2.53,9.789,8.249,9.789c5.72,0,7.975-3.904,7.975-9.789V48.735h6.983V72.107z"/>
		<path style="fill:#04316A;" d="M1194.814,87.45h-6.544V71.448c0-4.07-1.21-6.819-5.17-6.819c-4.564,0-5.829,3.739-5.829,6.764
			V87.45h-6.544V59.459h6.489v3.354h0.109c1.65-2.474,4.62-4.069,8.249-4.069c6.379,0,9.239,4.674,9.239,11.329V87.45z"/>
		<path style="fill:#04316A;" d="M1210.491,50.99c0,2.31-1.87,3.959-4.18,3.959c-2.255,0-4.124-1.65-4.124-3.959
			c0-2.255,1.869-3.959,4.124-3.959C1208.621,47.031,1210.491,48.735,1210.491,50.99z M1209.611,87.45h-6.544V59.459h6.544V87.45z"
			/>
		<path style="fill:#04316A;" d="M1242.328,59.459l-10.174,27.991h-6.819l-10.173-27.991h7.204l6.433,20.347h0.11l6.434-20.347
			H1242.328z"/>
		<path style="fill:#04316A;" d="M1259.231,88.11c-8.304,0-13.857-5.884-13.857-14.737c0-8.689,5.334-14.628,13.143-14.628
			c7.534,0,12.429,5.609,12.429,14.243c0,0.935-0.055,1.924-0.11,2.695h-18.807c0.715,4.344,3.299,6.819,7.259,6.819
			c2.584,0,4.674-0.99,6.874-3.3l4.069,4.29C1267.041,86.626,1263.465,88.11,1259.231,88.11z M1251.917,70.897h12.703
			c-0.274-4.289-2.529-6.764-6.214-6.764C1254.777,64.133,1252.467,66.553,1251.917,70.897z"/>
		<path style="fill:#04316A;" d="M1295.03,59.349l-1.045,6.709c-0.99-0.55-2.199-0.88-3.629-0.88c-4.51,0-5.72,3.63-5.72,7.919
			V87.45h-6.544V59.459h6.434v3.52h0.11c1.484-2.639,4.124-4.234,7.314-4.234C1292.885,58.744,1294.04,58.909,1295.03,59.349z"/>
		<path style="fill:#04316A;" d="M1301.218,79.532c2.75,2.089,5.444,3.135,7.919,3.135c2.42,0,4.124-1.101,4.124-2.805
			c0-4.785-14.023-3.08-14.023-12.428c0-5.169,4.289-8.689,10.559-8.689c3.354,0,6.709,0.99,9.679,2.915l-3.08,5.114
			c-2.419-1.65-4.564-2.475-6.709-2.475c-2.42,0-4.015,1.045-4.015,2.585c0,4.564,13.969,2.969,13.969,12.373
			c0,5.279-4.345,8.854-10.779,8.854c-3.739,0-7.533-1.155-10.778-3.409L1301.218,79.532z"/>
		<path style="fill:#04316A;" d="M1334.063,50.99c0,2.31-1.87,3.959-4.18,3.959c-2.255,0-4.124-1.65-4.124-3.959
			c0-2.255,1.869-3.959,4.124-3.959C1332.193,47.031,1334.063,48.735,1334.063,50.99z M1333.183,87.45h-6.544V59.459h6.544V87.45z"
			/>
		<path style="fill:#04316A;" d="M1356.167,81.456v5.609c-1.43,0.66-3.575,1.044-5.5,1.044c-4.949,0-7.644-2.75-7.644-7.864V64.903
			h-4.289v-5.444h4.234v-7.644l6.544-1.43v9.074h6.654v5.444h-6.654v13.803c0,2.585,0.88,3.685,3.024,3.685
			C1353.748,82.391,1355.067,82.006,1356.167,81.456z"/>
		<path style="fill:#04316A;" d="M1373.321,70.073c1.814,0,3.465,0.11,5.279,0.604v-0.99c0-3.575-2.09-5.444-6.159-5.444
			c-2.255,0-4.784,0.55-7.094,1.595l-1.43-5.499c2.584-0.99,5.994-1.595,9.184-1.595c7.864,0,11.934,3.685,11.934,10.833V87.45
			h-6.215v-2.969h-0.109c-2.42,2.474-4.949,3.629-8.194,3.629c-5.609,0-9.238-3.464-9.238-8.909
			C1361.278,73.262,1365.512,70.073,1373.321,70.073z M1367.987,55.115c-2.09,0-3.904-1.76-3.904-3.795
			c0-2.035,1.814-3.849,3.904-3.849s3.904,1.814,3.904,3.849C1371.891,53.355,1370.077,55.115,1367.987,55.115z M1372.221,83.216
			c2.364,0,4.564-1.155,6.379-3.354v-4.894c-1.54-0.385-3.135-0.55-4.564-0.55c-4.124,0-6.489,1.65-6.489,4.619
			C1367.546,81.621,1369.362,83.216,1372.221,83.216z M1379.425,55.115c-2.09,0-3.904-1.76-3.904-3.795
			c0-2.035,1.814-3.849,3.904-3.849s3.904,1.814,3.904,3.849C1383.33,53.355,1381.515,55.115,1379.425,55.115z"/>
		<path style="fill:#04316A;" d="M1407.553,81.456v5.609c-1.43,0.66-3.575,1.044-5.5,1.044c-4.949,0-7.644-2.75-7.644-7.864V64.903
			h-4.289v-5.444h4.234v-7.644l6.544-1.43v9.074h6.654v5.444h-6.654v13.803c0,2.585,0.88,3.685,3.024,3.685
			C1405.133,82.391,1406.453,82.006,1407.553,81.456z"/>
		<path style="fill:#04316A;" d="M626.357,147.95h-25.296v-38.715h24.581v6.269h-17.763v9.239h13.528v6.214h-13.528v10.724h18.478
			V147.95z"/>
		<path style="fill:#04316A;" d="M650.046,119.849l-1.045,6.709c-0.99-0.55-2.2-0.88-3.629-0.88c-4.509,0-5.719,3.63-5.719,7.919
			v14.353h-6.544v-27.991h6.434v3.52h0.11c1.485-2.639,4.125-4.234,7.314-4.234C647.902,119.244,649.057,119.409,650.046,119.849z"
			/>
		<path style="fill:#04316A;" d="M662.12,147.95h-6.544v-39.375l6.544-1.484V147.95z"/>
		<path style="fill:#04316A;" d="M680.984,130.573c1.815,0,3.465,0.11,5.279,0.605v-0.99c0-3.575-2.089-5.444-6.159-5.444
			c-2.254,0-4.784,0.55-7.094,1.595l-1.43-5.499c2.584-0.99,5.994-1.595,9.184-1.595c7.864,0,11.934,3.685,11.934,10.834v17.873
			h-6.214v-2.969h-0.11c-2.42,2.474-4.95,3.629-8.194,3.629c-5.609,0-9.238-3.464-9.238-8.909
			C668.941,133.762,673.175,130.573,680.984,130.573z M679.884,143.716c2.365,0,4.565-1.155,6.379-3.355v-4.894
			c-1.539-0.385-3.134-0.55-4.564-0.55c-4.124,0-6.489,1.65-6.489,4.619C675.21,142.121,677.024,143.716,679.884,143.716z"/>
		<path style="fill:#04316A;" d="M725.081,147.95h-6.544v-16.003c0-4.07-1.21-6.819-5.169-6.819c-4.564,0-5.829,3.739-5.829,6.764
			v16.058h-6.544v-27.991h6.489v3.354h0.11c1.649-2.474,4.619-4.069,8.248-4.069c6.379,0,9.239,4.674,9.239,11.329V147.95z"/>
		<path style="fill:#04316A;" d="M739.399,154.054l1.43-0.055c8.359-0.33,10.833-2.695,10.833-7.974v-1.815h-0.055
			c-1.98,2.53-5.114,3.905-8.469,3.905c-6.764,0-11.109-5.555-11.109-14.189c0-8.854,4.565-14.683,11.384-14.683
			c3.355,0,6.379,1.43,8.249,3.905h0.11v-3.19h6.434v25.131c0,9.074-4.62,13.583-16.773,14.078l-1.375,0.056L739.399,154.054z
			 M738.52,133.762c0,5.499,2.42,8.744,6.544,8.744c2.475,0,4.564-1.21,6.599-3.684v-10.008c-1.924-2.42-4.124-3.685-6.654-3.685
			C740.939,125.128,738.52,128.263,738.52,133.762z"/>
		<path style="fill:#04316A;" d="M779.119,148.61c-8.304,0-13.858-5.884-13.858-14.738c0-8.689,5.334-14.628,13.143-14.628
			c7.534,0,12.428,5.609,12.428,14.243c0,0.934-0.055,1.924-0.11,2.695h-18.808c0.715,4.344,3.299,6.819,7.259,6.819
			c2.584,0,4.674-0.99,6.874-3.3l4.069,4.29C786.928,147.126,783.354,148.61,779.119,148.61z M771.805,131.397h12.703
			c-0.275-4.289-2.53-6.764-6.214-6.764C774.665,124.633,772.355,127.053,771.805,131.397z"/>
		<path style="fill:#04316A;" d="M822.067,147.95h-6.544v-16.003c0-4.07-1.21-6.819-5.169-6.819c-4.564,0-5.829,3.739-5.829,6.764
			v16.058h-6.544v-27.991h6.489v3.354h0.11c1.649-2.474,4.619-4.069,8.249-4.069c6.379,0,9.239,4.674,9.239,11.329V147.95z"/>
		<path style="fill:#04316A;" d="M843.326,133.872h-13.748v-6.214h13.748V133.872z"/>
		<path style="fill:#04316A;" d="M851.825,109.235h6.984l17.212,27.002h0.11l-0.165-27.002h6.654v38.715h-6.819l-17.268-27.166
			h-0.11l0.11,27.166h-6.709V109.235z"/>
		<path style="fill:#04316A;" d="M898.095,136.787c0,3.85,1.925,5.884,5.554,5.884c3.575,0,5.444-1.98,5.444-5.939v-16.773h6.544
			v16.993c0,7.369-4.124,11.658-11.823,11.658c-7.644,0-12.263-4.289-12.263-11.603v-17.048h6.544V136.787z M897.875,115.615
			c-2.09,0-3.905-1.76-3.905-3.795c0-2.035,1.815-3.849,3.905-3.849c2.089,0,3.904,1.814,3.904,3.849
			C901.78,113.855,899.964,115.615,897.875,115.615z M909.313,115.615c-2.089,0-3.904-1.76-3.904-3.795
			c0-2.035,1.815-3.849,3.904-3.849c2.09,0,3.905,1.814,3.905,3.849C913.218,113.855,911.403,115.615,909.313,115.615z"/>
		<path style="fill:#04316A;" d="M940.873,119.849l-1.045,6.709c-0.989-0.55-2.199-0.88-3.63-0.88c-4.509,0-5.719,3.63-5.719,7.919
			v14.353h-6.544v-27.991h6.434v3.52h0.11c1.484-2.639,4.124-4.234,7.315-4.234C938.728,119.244,939.882,119.409,940.873,119.849z"
			/>
		<path style="fill:#04316A;" d="M970.412,147.95h-6.544v-16.003c0-4.07-1.21-6.819-5.17-6.819c-4.565,0-5.829,3.739-5.829,6.764
			v16.058h-6.544v-27.991h6.489v3.354h0.109c1.65-2.474,4.62-4.069,8.249-4.069c6.379,0,9.239,4.674,9.239,11.329V147.95z"/>
		<path style="fill:#04316A;" d="M1004.879,133.762c0,9.018-4.564,14.848-11.438,14.848c-3.52,0-6.435-1.484-8.305-3.904h-0.109
			v3.245h-6.27v-39.265l6.544-1.65v16.168h0.11c1.87-2.475,4.729-3.959,8.194-3.959
			C1000.315,119.244,1004.879,124.688,1004.879,133.762z M998.445,133.927c0-5.774-2.364-8.799-6.544-8.799
			c-2.53,0-4.564,1.1-6.6,3.629v10.229c1.87,2.475,3.96,3.794,6.654,3.794C996.19,142.781,998.445,139.536,998.445,133.927z"/>
		<path style="fill:#04316A;" d="M1024.482,148.61c-8.304,0-13.857-5.884-13.857-14.738c0-8.689,5.334-14.628,13.143-14.628
			c7.534,0,12.429,5.609,12.429,14.243c0,0.934-0.055,1.924-0.11,2.695h-18.808c0.716,4.344,3.3,6.819,7.26,6.819
			c2.584,0,4.674-0.99,6.874-3.3l4.069,4.29C1032.292,147.126,1028.717,148.61,1024.482,148.61z M1017.169,131.397h12.703
			c-0.275-4.289-2.529-6.764-6.214-6.764C1020.028,124.633,1017.718,127.053,1017.169,131.397z"/>
		<path style="fill:#04316A;" d="M1060.281,119.849l-1.045,6.709c-0.989-0.55-2.199-0.88-3.63-0.88c-4.509,0-5.719,3.63-5.719,7.919
			v14.353h-6.544v-27.991h6.434v3.52h0.11c1.484-2.639,4.124-4.234,7.314-4.234C1058.136,119.244,1059.291,119.409,1060.281,119.849
			z"/>
		<path style="fill:#04316A;" d="M1071.347,154.054l1.43-0.055c8.358-0.33,10.833-2.695,10.833-7.974v-1.815h-0.055
			c-1.979,2.53-5.114,3.905-8.469,3.905c-6.765,0-11.108-5.555-11.108-14.189c0-8.854,4.564-14.683,11.383-14.683
			c3.354,0,6.38,1.43,8.249,3.905h0.11v-3.19h6.434v25.131c0,9.074-4.619,13.583-16.772,14.078l-1.375,0.056L1071.347,154.054z
			 M1070.467,133.762c0,5.499,2.419,8.744,6.544,8.744c2.474,0,4.564-1.21,6.599-3.684v-10.008c-1.925-2.42-4.124-3.685-6.654-3.685
			C1072.886,125.128,1070.467,128.263,1070.467,133.762z"/>
	</g>
</g>
</svg>
